<?xml version="1.0" standalone="no"?>
<!DOCTYPE svg PUBLIC "-//W3C//DTD SVG 20010904//EN"
 "http://www.w3.org/TR/2001/REC-SVG-20010904/DTD/svg10.dtd">
<svg version="1.0" xmlns="http://www.w3.org/2000/svg"
 width="300.000000pt" height="186.000000pt" viewBox="0 0 300.000000 186.000000"
 preserveAspectRatio="xMidYMid meet">
<metadata>
Created by potrace 1.10, written by Peter Selinger 2001-2011
</metadata>
<g transform="translate(0.000000,186.000000) scale(0.100000,-0.100000)"
fill="#000000" stroke="none">
<path d="M1335 1708 c-48 -13 -55 -22 -50 -68 3 -31 6 -35 30 -33 15 1 35 9
45 18 21 19 50 19 75 2 24 -18 16 -47 -36 -127 -27 -41 -44 -81 -47 -107 -2
-24 -8 -43 -12 -43 -4 0 -54 -5 -111 -10 -208 -21 -390 -61 -569 -127 -234
-86 -270 -106 -270 -154 0 -35 20 -55 70 -70 37 -11 47 -9 157 34 129 49 204
73 363 111 132 32 379 61 394 46 13 -13 53 -13 61 1 14 21 293 -17 481 -66
133 -35 202 -58 283 -97 128 -62 285 -2 210 79 -32 33 -52 43 -213 103 -231
85 -424 130 -596 136 -153 6 -170 9 -170 32 0 10 22 53 49 96 27 43 52 95 56
116 17 99 -81 161 -200 128z m82 -380 c21 -19 39 -23 156 -29 210 -12 419 -63
693 -169 124 -47 146 -85 57 -97 -29 -4 -57 2 -104 22 -158 65 -355 122 -504
145 -141 21 -253 29 -285 20 -19 -6 -41 -5 -57 1 -70 26 -516 -63 -730 -146
-121 -48 -181 -56 -204 -29 -25 30 7 47 270 141 138 49 360 96 526 112 87 9
114 15 129 31 25 25 25 25 53 -2z"/>
<path d="M725 862 c-60 -13 -120 -104 -131 -198 -13 -103 48 -223 123 -243 48
-13 105 11 151 63 43 49 52 74 52 145 0 96 -60 192 -140 224 -19 7 -44 12 -55
9z m54 -56 c32 -17 59 -46 42 -46 -6 0 -11 4 -11 9 0 13 -58 31 -78 24 -9 -3
-30 -18 -46 -32 l-28 -26 16 32 c26 52 57 63 105 39z m8 -68 c30 -35 46 -84
40 -125 -7 -41 -60 -103 -89 -103 -31 0 -51 55 -46 130 6 106 48 149 95 98z
m-137 -88 l-7 -75 -2 62 c-1 53 6 100 14 91 1 -2 -1 -37 -5 -78z m220 -90
c-15 -36 -68 -86 -100 -94 l-25 -7 25 18 c47 33 80 75 92 116 11 34 14 38 16
19 2 -13 -2 -36 -8 -52z"/>
<path d="M333 843 c-8 -3 -6 -325 3 -380 l5 -33 114 0 c63 0 116 3 119 8 2 4
1 23 -3 42 l-7 35 -65 -3 c-49 -3 -68 0 -78 11 -9 11 -11 56 -9 165 l3 150
-37 4 c-20 2 -40 2 -45 1z m67 -348 c7 -9 10 -18 7 -21 -10 -11 -37 5 -37 21
0 19 14 19 30 0z"/>
<path d="M1085 838 c-74 -41 -116 -115 -123 -216 -9 -136 45 -213 152 -214 83
-1 146 44 146 104 0 55 -44 62 -113 18 l-46 -29 -21 26 c-42 54 -17 180 42
213 25 13 29 13 51 -8 15 -14 36 -22 60 -22 36 0 37 1 37 36 0 19 -5 44 -10
55 -22 40 -129 63 -175 37z m124 -52 c23 -24 6 -30 -36 -13 -47 18 -69 11
-111 -37 -35 -41 -47 -85 -40 -158 4 -42 11 -57 37 -80 37 -33 50 -34 93 -8
39 24 58 25 58 5 0 -41 -119 -60 -163 -25 -80 63 -51 275 45 324 38 19 93 15
117 -8z"/>
<path d="M1699 839 c-11 -6 -5 -381 6 -400 4 -5 58 -9 121 -9 l114 0 0 33 c0
49 -8 54 -85 53 l-70 -1 -3 161 -2 162 -35 4 c-20 2 -40 1 -46 -3z m71 -344
c7 -9 10 -18 7 -21 -10 -11 -37 5 -37 21 0 19 14 19 30 0z"/>
<path d="M1994 842 c-7 -5 -9 -69 -5 -207 l6 -200 118 -3 117 -3 0 33 c0 50
-8 55 -85 54 l-70 -1 -3 163 c-2 151 -4 162 -21 162 -11 0 -25 2 -33 5 -7 3
-18 1 -24 -3z m66 -347 c7 -9 10 -18 7 -21 -10 -11 -37 5 -37 21 0 19 14 19
30 0z"/>
<path d="M2427 833 c-3 -5 -12 -35 -22 -68 -9 -33 -24 -70 -34 -83 -17 -23
-17 -22 -39 52 -23 81 -42 100 -90 94 -24 -3 -27 -8 -30 -42 -2 -27 3 -47 16
-65 10 -14 22 -39 26 -55 4 -15 16 -41 28 -56 14 -20 23 -51 27 -98 7 -79 23
-104 60 -100 24 3 27 8 32 58 4 33 27 101 58 171 51 117 61 165 39 187 -13 13
-64 16 -71 5z m-132 -113 c8 -38 42 -80 64 -80 25 0 66 48 81 95 7 22 15 35
17 28 2 -6 -20 -69 -49 -139 l-53 -129 -11 50 c-7 28 -28 85 -48 128 -20 43
-36 83 -36 89 0 21 29 -13 35 -42z"/>
<path d="M1448 803 c-84 -70 -138 -168 -145 -266 -5 -60 -4 -67 20 -91 17 -17
37 -26 57 -26 l31 0 -7 58 c-8 75 3 85 81 76 70 -8 85 -23 85 -80 l0 -44 45 0
c44 0 45 1 45 33 0 65 -21 213 -36 260 -35 106 -105 138 -176 80z m99 -28 c29
-20 63 -130 63 -200 l0 -53 -27 27 c-16 15 -37 33 -48 40 -14 8 -16 14 -7 17
7 3 19 18 27 33 12 25 12 32 -3 61 -24 48 -44 57 -76 37 -14 -10 -33 -31 -41
-48 -15 -28 -15 -33 -1 -54 21 -31 21 -31 -13 -45 -29 -12 -61 -62 -61 -95 0
-9 -4 -13 -10 -10 -5 3 -10 22 -10 40 0 75 73 209 133 246 39 23 46 23 74 4z
m-21 -103 c6 -32 6 -32 -35 -32 -22 0 -41 4 -41 9 0 17 53 72 61 64 5 -5 12
-23 15 -41z"/>
</g>
</svg>
